<svg width="20" height="20" viewBox="0 0 20 20" fill="none" xmlns="http://www.w3.org/2000/svg">
<g clip-path="url(#clip0_3625_3494)">
<path d="M18.905 7.65176C18.1716 6.45083 17.2465 5.3781 16.1664 4.47615L18.4411 2.20147C18.5891 2.04825 18.671 1.84304 18.6691 1.63003C18.6673 1.41703 18.5818 1.21327 18.4312 1.06265C18.2806 0.912026 18.0768 0.826589 17.8638 0.824738C17.6508 0.822887 17.4456 0.904771 17.2924 1.05275L14.8187 3.52972C13.2852 2.61889 11.5321 2.14416 9.74858 2.15679C4.7191 2.15679 1.853 5.59968 0.592179 7.65176C0.202663 8.28177 -0.00366211 9.00783 -0.00366211 9.74853C-0.00366211 10.4892 0.202663 11.2153 0.592179 11.8453C1.32557 13.0462 2.25066 14.119 3.33073 15.0209L1.05605 17.2956C0.97846 17.3705 0.916571 17.4602 0.873994 17.5593C0.831418 17.6584 0.809007 17.765 0.80807 17.8729C0.807133 17.9807 0.827687 18.0877 0.868535 18.1876C0.909382 18.2874 0.969705 18.3781 1.04598 18.4544C1.12226 18.5307 1.21296 18.591 1.3128 18.6318C1.41264 18.6727 1.51962 18.6932 1.62748 18.6923C1.73535 18.6914 1.84195 18.6689 1.94107 18.6264C2.04018 18.5838 2.12982 18.5219 2.20476 18.4443L4.68417 15.9649C6.21573 16.8756 7.96675 17.3511 9.74858 17.3403C14.7781 17.3403 17.6442 13.8974 18.905 11.8453C19.2945 11.2153 19.5008 10.4892 19.5008 9.74853C19.5008 9.00783 19.2945 8.28177 18.905 7.65176ZM1.97648 10.9947C1.74506 10.6203 1.62249 10.1887 1.62249 9.74853C1.62249 9.30832 1.74506 8.8768 1.97648 8.50233C3.06021 6.7427 5.50955 3.78156 9.74858 3.78156C11.0974 3.774 12.4272 4.09907 13.6204 4.72799L11.9851 6.36332C11.2051 5.84551 10.2701 5.61348 9.33851 5.70662C8.40697 5.79976 7.53634 6.21233 6.87436 6.87431C6.21238 7.5363 5.79981 8.40692 5.70667 9.33846C5.61353 10.27 5.84555 11.2051 6.36337 11.985L4.48676 13.8616C3.49167 13.0572 2.64251 12.0873 1.97648 10.9947ZM12.1857 9.74853C12.1857 10.3949 11.929 11.0148 11.4719 11.4719C11.0149 11.9289 10.395 12.1857 9.74858 12.1857C9.38667 12.1843 9.02978 12.101 8.70466 11.942L11.942 8.70462C12.101 9.02973 12.1843 9.38662 12.1857 9.74853ZM7.31142 9.74853C7.31142 9.10216 7.56819 8.48226 8.02525 8.0252C8.4823 7.56814 9.10221 7.31137 9.74858 7.31137C10.1105 7.31277 10.4674 7.3961 10.7925 7.55509L7.55514 10.7924C7.39614 10.4673 7.31282 10.1104 7.31142 9.74853ZM17.5207 10.9947C16.437 12.7544 13.9876 15.7155 9.74858 15.7155C8.3998 15.7231 7.06995 15.398 5.87675 14.7691L7.51208 13.1337C8.29203 13.6516 9.2271 13.8836 10.1586 13.7904C11.0902 13.6973 11.9608 13.2847 12.6228 12.6228C13.2848 11.9608 13.6973 11.0901 13.7905 10.1586C13.8836 9.22705 13.6516 8.29198 13.1338 7.51203L15.0104 5.63542C16.0055 6.43991 16.8546 7.40971 17.5207 8.50233C17.7521 8.8768 17.8747 9.30832 17.8747 9.74853C17.8747 10.1887 17.7521 10.6203 17.5207 10.9947Z" fill="#E7E8EC"/>
</g>
<defs>
<clipPath id="clip0_3625_3494">
<rect width="19.4973" height="19.4973" fill="white"/>
</clipPath>
</defs>
</svg>
