<svg width="46" height="46" viewBox="0 0 46 46" fill="none" xmlns="http://www.w3.org/2000/svg">
<rect width="46" height="46" rx="23" fill="#E8F6ED"/>
<path opacity="0.4" d="M35.5 23C35.5 29.9036 29.9036 35.5 23 35.5C16.0964 35.5 10.5 29.9036 10.5 23C10.5 16.0964 16.0964 10.5 23 10.5C29.9036 10.5 35.5 16.0964 35.5 23Z" fill="#16A34A"/>
<path fill-rule="evenodd" clip-rule="evenodd" d="M23 15.1875C23.5178 15.1875 23.9375 15.6072 23.9375 16.125V17.1919C25.3803 17.6 26.4375 18.9265 26.4375 20.5C26.4375 21.0178 26.0178 21.4375 25.5 21.4375C24.9822 21.4375 24.5625 21.0178 24.5625 20.5C24.5625 19.6371 23.8629 18.9375 23 18.9375C22.1371 18.9375 21.4375 19.6371 21.4375 20.5C21.4375 21.3629 22.1371 22.0625 23 22.0625C24.8985 22.0625 26.4375 23.6015 26.4375 25.5C26.4375 27.0735 25.3803 28.4 23.9375 28.8081V29.875C23.9375 30.3928 23.5178 30.8125 23 30.8125C22.4822 30.8125 22.0625 30.3928 22.0625 29.875V28.8081C20.6197 28.4 19.5625 27.0735 19.5625 25.5C19.5625 24.9822 19.9822 24.5625 20.5 24.5625C21.0178 24.5625 21.4375 24.9822 21.4375 25.5C21.4375 26.3629 22.1371 27.0625 23 27.0625C23.8629 27.0625 24.5625 26.3629 24.5625 25.5C24.5625 24.6371 23.8629 23.9375 23 23.9375C21.1015 23.9375 19.5625 22.3985 19.5625 20.5C19.5625 18.9265 20.6197 17.6 22.0625 17.1919V16.125C22.0625 15.6072 22.4822 15.1875 23 15.1875Z" fill="#16A34A"/>
</svg>
