<svg width="588" height="701" viewBox="0 0 588 701" fill="none" xmlns="http://www.w3.org/2000/svg">
<path fill-rule="evenodd" clip-rule="evenodd" d="M360.748 86.7754C443.638 128.275 454.864 301.398 528.129 316.898C559.093 409.915 623.78 604.754 558.017 677.46C494.525 747.653 339.622 631.247 245.406 622.208C178.741 615.812 107.389 588.909 56.27 545.643C-6.11062 492.845 -28.3241 261.013 57.2868 251.438C56.5694 151.579 -15.8293 71.3603 69.4707 19.4353C157.063 -33.885 269.053 40.868 360.748 86.7754Z" fill="#EEEEEE" fill-opacity="0.933333" stroke="#888888" stroke-width="2"/>
<circle cx="101.864" cy="302.898" r="15" fill="#FFB700"/>
<circle cx="81.8638" cy="400.898" r="15" fill="#FFB700"/>
<circle cx="131.864" cy="501.898" r="15" fill="#FFB700"/>
<circle cx="243.864" cy="562.898" r="15" fill="#FFB700"/>
<circle cx="443.864" cy="430.898" r="15" fill="#FFB700"/>
<circle cx="408.864" cy="302.898" r="15" fill="#FFB700"/>
<circle cx="308.864" cy="219.898" r="15" fill="#FFB700"/>
<circle cx="408.864" cy="547.898" r="15" fill="#FFB700"/>
<circle cx="258.864" cy="415.898" r="15" fill="#FFB700"/>
<circle cx="161.864" cy="90.8979" r="15" fill="#FFB700"/>
<circle cx="107.864" cy="151.898" r="15" fill="#FFB700"/>
<circle cx="528.864" cy="657.898" r="15" fill="#FFB700"/>
</svg>
