<svg width="24" height="24" viewBox="0 0 24 24" fill="none" xmlns="http://www.w3.org/2000/svg">
<g clip-path="url(#clip0_2871_13)">
<path d="M9.75 15.6H14.25L13.3875 11.73C13.8875 11.53 14.2815 11.24 14.5695 10.86C14.8575 10.48 15.001 10.06 15 9.6C15 8.94 14.7065 8.3752 14.1195 7.9056C13.5325 7.436 12.826 7.2008 12 7.2C11.174 7.1992 10.468 7.4344 9.882 7.9056C9.29599 8.3768 9.002 8.9416 9 9.6C9 10.06 9.144 10.48 9.432 10.86C9.72 11.24 10.1135 11.53 10.6125 11.73L9.75 15.6ZM12 24C8.52499 23.3 5.656 21.7048 3.393 19.2144C1.13 16.724 -0.000999338 13.9592 6.62544e-07 10.92V3.6L12 0L24 3.6V10.92C24 13.96 22.869 16.7252 20.607 19.2156C18.345 21.706 15.476 23.3008 12 24ZM12 21.48C14.6 20.82 16.75 19.5 18.45 17.52C20.15 15.54 21 13.34 21 10.92V5.25L12 2.55L3 5.25V10.92C3 13.34 3.85001 15.54 5.55 17.52C7.25 19.5 9.40001 20.82 12 21.48Z" fill="#FFB803"/>
</g>
<defs>
<clipPath id="clip0_2871_13">
<rect width="24" height="24" fill="white"/>
</clipPath>
</defs>
</svg>
