<svg width="40" height="40" viewBox="0 0 40 40" fill="none" xmlns="http://www.w3.org/2000/svg">
<rect x="0.5" y="0.5" width="39" height="39" rx="19.5" fill="white"/>
<rect x="0.5" y="0.5" width="39" height="39" rx="19.5" stroke="#969393"/>
<path d="M22.625 24.5C22.625 25.9497 21.4497 27.125 20 27.125C18.5503 27.125 17.375 25.9497 17.375 24.5" stroke="black" stroke-width="0.75" stroke-linecap="round" stroke-linejoin="round"/>
<path d="M25.4233 24.5H14.5767C13.844 24.5 13.25 23.906 13.25 23.1733C13.25 22.8215 13.3898 22.4841 13.6386 22.2352L14.091 21.7828C14.5129 21.3609 14.75 20.7886 14.75 20.1919V18.125C14.75 15.2255 17.1005 12.875 20 12.875C22.8995 12.875 25.25 15.2255 25.25 18.125V20.1919C25.25 20.7886 25.4871 21.3609 25.909 21.7828L26.3614 22.2352C26.6102 22.4841 26.75 22.8215 26.75 23.1733C26.75 23.906 26.156 24.5 25.4233 24.5Z" stroke="black" stroke-width="0.75" stroke-linecap="round" stroke-linejoin="round"/>
</svg>
