<svg width="105" height="50" viewBox="0 0 105 50" fill="none" xmlns="http://www.w3.org/2000/svg">
<rect x="10" y="10" width="30" height="30" rx="15" fill="#FFB700"/>
<path d="M33 27C33.2549 27.0003 33.5 27.0979 33.6854 27.2729C33.8707 27.4478 33.9822 27.687 33.9972 27.9414C34.0121 28.1959 33.9293 28.4464 33.7657 28.6418C33.6021 28.8373 33.3701 28.9629 33.117 28.993L33 29H19.414L21.707 31.293C21.8863 31.473 21.9905 31.7144 21.9982 31.9684C22.006 32.2223 21.9168 32.4697 21.7487 32.6603C21.5807 32.8509 21.3464 32.9703 21.0935 32.9944C20.8406 33.0185 20.588 32.9454 20.387 32.79L20.293 32.707L16.463 28.877C15.798 28.213 16.224 27.094 17.126 27.006L17.241 27H33ZM28.293 17.293C28.4652 17.1208 28.6943 17.0174 28.9373 17.0021C29.1803 16.9868 29.4206 17.0608 29.613 17.21L29.707 17.293L33.537 21.123C34.202 21.787 33.776 22.906 32.874 22.994L32.759 23H17C16.7451 22.9997 16.5 22.9021 16.3146 22.7272C16.1293 22.5522 16.0178 22.3131 16.0028 22.0586C15.9879 21.8042 16.0707 21.5536 16.2343 21.3582C16.3978 21.1627 16.6299 21.0371 16.883 21.007L17 21H30.586L28.293 18.707C28.1055 18.5195 28.0002 18.2652 28.0002 18C28.0002 17.7348 28.1055 17.4805 28.293 17.293Z" fill="black"/>
<path d="M43.4347 32V17.4545H48.8892C50.0066 17.4545 50.9441 17.6487 51.7017 18.0369C52.464 18.4252 53.0393 18.9697 53.4276 19.6705C53.8205 20.3665 54.017 21.1785 54.017 22.1065C54.017 23.0393 53.8182 23.849 53.4205 24.5355C53.0275 25.2173 52.4474 25.7453 51.6804 26.1193C50.9134 26.4886 49.9711 26.6733 48.8537 26.6733H44.9688V24.4858H48.4986C49.152 24.4858 49.687 24.3958 50.1037 24.2159C50.5204 24.0312 50.8281 23.7637 51.027 23.4134C51.2306 23.0582 51.3324 22.6226 51.3324 22.1065C51.3324 21.5904 51.2306 21.1501 51.027 20.7855C50.8234 20.4162 50.5133 20.1368 50.0966 19.9474C49.6799 19.7533 49.1425 19.6562 48.4844 19.6562H46.0696V32H43.4347ZM50.9489 25.4091L54.5497 32H51.6094L48.0724 25.4091H50.9489ZM60.2021 32.2131C59.1084 32.2131 58.1638 31.9858 57.3683 31.5312C56.5776 31.072 55.9692 30.4233 55.543 29.5852C55.1169 28.7424 54.9038 27.7505 54.9038 26.6094C54.9038 25.4872 55.1169 24.5024 55.543 23.6548C55.9739 22.8026 56.5752 22.1397 57.347 21.6662C58.1188 21.188 59.0255 20.9489 60.0672 20.9489C60.7395 20.9489 61.374 21.0578 61.9706 21.2756C62.5719 21.4886 63.1022 21.8201 63.5615 22.2699C64.0255 22.7197 64.3901 23.2926 64.6553 23.9886C64.9204 24.6799 65.053 25.5038 65.053 26.4602V27.2486H56.1112V25.5156H62.5885C62.5838 25.0232 62.4772 24.5852 62.2689 24.2017C62.0606 23.8134 61.7694 23.508 61.3953 23.2855C61.026 23.063 60.5951 22.9517 60.1027 22.9517C59.5771 22.9517 59.1155 23.0795 58.7178 23.3352C58.32 23.5862 58.0099 23.9176 57.7874 24.3295C57.5696 24.7367 57.4583 25.1842 57.4536 25.6719V27.1847C57.4536 27.8191 57.5696 28.3636 57.8016 28.8182C58.0336 29.268 58.3579 29.6136 58.7746 29.8551C59.1912 30.0919 59.6789 30.2102 60.2376 30.2102C60.6117 30.2102 60.9502 30.1581 61.2533 30.054C61.5563 29.9451 61.8191 29.7865 62.0416 29.5781C62.2642 29.3698 62.4322 29.1117 62.5459 28.804L64.9464 29.0739C64.7949 29.7083 64.5061 30.2623 64.08 30.7358C63.6586 31.2045 63.1188 31.5691 62.4607 31.8295C61.8025 32.0852 61.0497 32.2131 60.2021 32.2131ZM66.4281 32V21.0909H68.8854V22.9446H69.0133C69.2406 22.3196 69.617 21.8319 70.1425 21.4815C70.6681 21.1264 71.2955 20.9489 72.0246 20.9489C72.7633 20.9489 73.3859 21.1288 73.8925 21.4886C74.4039 21.8437 74.7638 22.3291 74.9721 22.9446H75.0857C75.3272 22.3385 75.7344 21.8556 76.3073 21.4957C76.885 21.1312 77.5692 20.9489 78.3599 20.9489C79.3637 20.9489 80.1828 21.2661 80.8173 21.9006C81.4517 22.535 81.769 23.4607 81.769 24.6776V32H79.1908V25.0753C79.1908 24.3982 79.0109 23.9034 78.6511 23.5909C78.2912 23.2737 77.8509 23.1151 77.33 23.1151C76.7098 23.1151 76.2245 23.3092 75.8741 23.6974C75.5284 24.081 75.3556 24.5805 75.3556 25.196V32H72.8343V24.9688C72.8343 24.4053 72.6638 23.9555 72.3229 23.6193C71.9868 23.2831 71.5464 23.1151 71.0019 23.1151C70.6326 23.1151 70.2964 23.2098 69.9934 23.3991C69.6904 23.5838 69.4489 23.8466 69.269 24.1875C69.089 24.5237 68.9991 24.9167 68.9991 25.3665V32H66.4281ZM83.5773 32V21.0909H86.1483V32H83.5773ZM84.8699 19.5426C84.4627 19.5426 84.1123 19.4077 83.8187 19.1378C83.5252 18.8632 83.3784 18.5341 83.3784 18.1506C83.3784 17.7623 83.5252 17.4332 83.8187 17.1634C84.1123 16.8887 84.4627 16.7514 84.8699 16.7514C85.2818 16.7514 85.6322 16.8887 85.921 17.1634C86.2146 17.4332 86.3614 17.7623 86.3614 18.1506C86.3614 18.5341 86.2146 18.8632 85.921 19.1378C85.6322 19.4077 85.2818 19.5426 84.8699 19.5426ZM93.4396 21.0909V23.0795H87.1683V21.0909H93.4396ZM88.7165 18.4773H91.2876V28.7188C91.2876 29.0644 91.3397 29.3295 91.4438 29.5142C91.5527 29.6941 91.6948 29.8172 91.87 29.8835C92.0451 29.9498 92.2393 29.983 92.4523 29.983C92.6133 29.983 92.7601 29.9711 92.8927 29.9474C93.03 29.9238 93.1342 29.9025 93.2052 29.8835L93.6384 31.8935C93.5011 31.9408 93.3046 31.9929 93.0489 32.0497C92.798 32.1065 92.4902 32.1397 92.1256 32.1491C91.4817 32.1681 90.9017 32.071 90.3856 31.858C89.8695 31.6402 89.4599 31.304 89.1569 30.8494C88.8586 30.3949 88.7118 29.8267 88.7165 29.1449V18.4773Z" fill="#FFB700"/>
</svg>
