<svg width="65" height="39" viewBox="0 0 65 39" fill="none" xmlns="http://www.w3.org/2000/svg">
<rect y="7.65112" width="22.9537" height="22.9537" rx="11.4768" fill="#0E1C3F"/>
<path d="M17.5978 20.6582C17.7928 20.6584 17.9804 20.7331 18.1222 20.867C18.264 21.0008 18.3493 21.1838 18.3608 21.3785C18.3722 21.5732 18.3089 21.7648 18.1837 21.9144C18.0585 22.0639 17.881 22.16 17.6873 22.1831L17.5978 22.1884H7.20286L8.95729 23.9429C9.09451 24.0806 9.17418 24.2653 9.18011 24.4596C9.18604 24.6539 9.1178 24.8432 8.98923 24.989C8.86066 25.1348 8.68142 25.2262 8.4879 25.2446C8.29439 25.2631 8.10111 25.2072 7.94733 25.0882L7.8754 25.0247L4.94499 22.0943C4.43618 21.5863 4.76212 20.7301 5.45226 20.6628L5.54025 20.6582H17.5978ZM13.9964 13.2312C14.1281 13.0994 14.3034 13.0203 14.4894 13.0086C14.6753 12.9969 14.8591 13.0535 15.0063 13.1676L15.0783 13.2312L18.0087 16.1616C18.5175 16.6696 18.1915 17.5258 17.5014 17.5931L17.4134 17.5977H5.35586C5.16084 17.5975 4.97327 17.5228 4.83147 17.3889C4.68966 17.2551 4.60433 17.0721 4.5929 16.8774C4.58147 16.6827 4.64481 16.491 4.76998 16.3415C4.89514 16.192 5.07269 16.0959 5.26634 16.0728L5.35586 16.0675H15.7508L13.9964 14.313C13.8529 14.1696 13.7724 13.975 13.7724 13.7721C13.7724 13.5692 13.8529 13.3746 13.9964 13.2312Z" fill="white"/>
<path d="M25.5816 24.6279V13.4989H29.755C30.6099 13.4989 31.3272 13.6474 31.9069 13.9445C32.4901 14.2415 32.9303 14.6582 33.2274 15.1943C33.528 15.7269 33.6784 16.3482 33.6784 17.0582C33.6784 17.7719 33.5262 18.3914 33.2219 18.9167C32.9212 19.4384 32.4775 19.8423 31.8906 20.1285C31.3037 20.4111 30.5828 20.5524 29.7278 20.5524H26.7553V18.8786H29.4561C29.956 18.8786 30.3654 18.8098 30.6842 18.6722C31.003 18.5309 31.2385 18.3262 31.3906 18.0581C31.5464 17.7864 31.6243 17.4531 31.6243 17.0582C31.6243 16.6633 31.5464 16.3264 31.3906 16.0475C31.2349 15.7649 30.9976 15.5512 30.6788 15.4063C30.36 15.2577 29.9488 15.1835 29.4452 15.1835H27.5976V24.6279H25.5816ZM31.3309 19.5851L34.0859 24.6279H31.8362L29.13 19.5851H31.3309ZM38.4107 24.791C37.5739 24.791 36.8511 24.6171 36.2425 24.2693C35.6375 23.9179 35.172 23.4216 34.846 22.7803C34.5199 22.1355 34.3569 21.3765 34.3569 20.5034C34.3569 19.6449 34.5199 18.8913 34.846 18.2429C35.1756 17.5908 35.6357 17.0836 36.2262 16.7213C36.8167 16.3554 37.5105 16.1725 38.3075 16.1725C38.8219 16.1725 39.3074 16.2558 39.7638 16.4224C40.2239 16.5855 40.6297 16.839 40.9811 17.1832C41.3361 17.5274 41.615 17.9657 41.8179 18.4983C42.0208 19.0272 42.1222 19.6575 42.1222 20.3893V20.9925H35.2807V19.6666H40.2366C40.233 19.2898 40.1515 18.9547 39.9921 18.6613C39.8327 18.3642 39.6099 18.1306 39.3237 17.9603C39.0411 17.79 38.7114 17.7049 38.3347 17.7049C37.9325 17.7049 37.5793 17.8027 37.275 17.9983C36.9707 18.1903 36.7334 18.4439 36.5631 18.7591C36.3965 19.0707 36.3114 19.413 36.3077 19.7861V20.9436C36.3077 21.4291 36.3965 21.8457 36.574 22.1935C36.7515 22.5376 36.9997 22.8021 37.3185 22.9868C37.6373 23.168 38.0104 23.2585 38.4379 23.2585C38.7241 23.2585 38.9831 23.2187 39.215 23.139C39.4468 23.0557 39.6479 22.9343 39.8182 22.7749C39.9884 22.6155 40.117 22.4181 40.204 22.1826L42.0407 22.3891C41.9248 22.8745 41.7038 23.2984 41.3778 23.6607C41.0553 24.0193 40.6423 24.2983 40.1388 24.4975C39.6352 24.6931 39.0592 24.791 38.4107 24.791ZM43.1743 24.6279V16.2811H45.0545V17.6994H45.1523C45.3262 17.2212 45.6142 16.8481 46.0164 16.58C46.4185 16.3083 46.8985 16.1725 47.4564 16.1725C48.0215 16.1725 48.4979 16.3101 48.8856 16.5855C49.2768 16.8572 49.5522 17.2285 49.7116 17.6994H49.7985C49.9833 17.2357 50.2948 16.8662 50.7332 16.5909C51.1751 16.3119 51.6986 16.1725 52.3036 16.1725C53.0716 16.1725 53.6984 16.4152 54.1838 16.9006C54.6693 17.3861 54.912 18.0943 54.912 19.0254V24.6279H52.9394V19.3297C52.9394 18.8116 52.8017 18.4331 52.5264 18.1939C52.2511 17.9512 51.9142 17.8299 51.5157 17.8299C51.0411 17.8299 50.6698 17.9784 50.4017 18.2755C50.1372 18.5689 50.005 18.9511 50.005 19.4221V24.6279H48.0759V19.2482C48.0759 18.8171 47.9455 18.4729 47.6846 18.2157C47.4274 17.9585 47.0905 17.8299 46.6739 17.8299C46.3913 17.8299 46.1341 17.9023 45.9022 18.0472C45.6704 18.1885 45.4856 18.3896 45.348 18.6504C45.2103 18.9076 45.1415 19.2083 45.1415 19.5525V24.6279H43.1743ZM56.2956 24.6279V16.2811H58.2627V24.6279H56.2956ZM57.2846 15.0965C56.973 15.0965 56.7049 14.9933 56.4803 14.7868C56.2557 14.5766 56.1434 14.3249 56.1434 14.0314C56.1434 13.7344 56.2557 13.4826 56.4803 13.2761C56.7049 13.066 56.973 12.9609 57.2846 12.9609C57.5998 12.9609 57.8678 13.066 58.0888 13.2761C58.3134 13.4826 58.4257 13.7344 58.4257 14.0314C58.4257 14.3249 58.3134 14.5766 58.0888 14.7868C57.8678 14.9933 57.5998 15.0965 57.2846 15.0965ZM63.8414 16.2811V17.8027H59.0431V16.2811H63.8414ZM60.2277 14.2814H62.1949V22.1174C62.1949 22.3818 62.2347 22.5847 62.3144 22.726C62.3978 22.8637 62.5064 22.9578 62.6405 23.0086C62.7745 23.0593 62.9231 23.0846 63.0861 23.0846C63.2093 23.0846 63.3216 23.0756 63.423 23.0575C63.5281 23.0394 63.6078 23.0231 63.6621 23.0086L63.9936 24.5464C63.8885 24.5826 63.7382 24.6225 63.5425 24.666C63.3505 24.7094 63.1151 24.7348 62.8361 24.742C62.3434 24.7565 61.8996 24.6823 61.5048 24.5192C61.1099 24.3526 60.7965 24.0954 60.5647 23.7476C60.3364 23.3998 60.2241 22.9651 60.2277 22.4434V14.2814Z" fill="#0E1C3F"/>
</svg>
