<svg width="24" height="24" viewBox="0 0 24 24" fill="none" xmlns="http://www.w3.org/2000/svg">
<path d="M6 0H18C19.5912 0 21.1174 0.371859 22.2427 1.03369C23.3678 1.69567 24 2.59341 24 3.52941V20C24 20.936 23.3678 21.8338 22.2427 22.4956C21.1174 23.1576 19.5912 23.5295 18 23.5295H6C4.4088 23.5295 2.88264 23.1576 1.75728 22.4956C0.63216 21.8338 0 20.936 0 20V3.52941C0 2.59341 0.63216 1.69567 1.75728 1.03369C2.88264 0.371859 4.4088 0 6 0ZM6 2.35299C5.4696 2.35299 4.9608 2.47694 4.58568 2.69746C4.2108 2.91812 4.00008 3.21741 4.00008 3.52941V20C4.00008 20.312 4.2108 20.6112 4.58568 20.8319C4.9608 21.0525 5.4696 21.1765 6 21.1765H18C18.5304 21.1765 19.0392 21.0525 19.4143 20.8319C19.7892 20.6112 19.9999 20.312 19.9999 20V3.52941C19.9999 3.21741 19.7892 2.91812 19.4143 2.69746C19.0392 2.47694 18.5304 2.35299 18 2.35299H6ZM12 20C11.4696 20 10.9608 19.8761 10.5857 19.6554C10.2108 19.4348 10.0001 19.1355 10.0001 18.8235C10.0001 18.5115 10.2108 18.2123 10.5857 17.9917C10.9608 17.771 11.4696 17.6471 12 17.6471C12.5304 17.6471 13.0392 17.771 13.4143 17.9917C13.7892 18.2123 13.9999 18.5115 13.9999 18.8235C13.9999 19.1355 13.7892 19.4348 13.4143 19.6554C13.0392 19.8761 12.5304 20 12 20Z" fill="#FFB803"/>
</svg>
