<svg width="60" height="15" viewBox="0 0 60 15" fill="none" xmlns="http://www.w3.org/2000/svg">
<path d="M10.8438 12.0556L9.08562 10.2812L9.51562 9.85125L10.8438 11.1794L13.5 8.52313L13.93 8.96875L10.8438 12.0556ZM1.875 12.5481V1.875H13.125V7.1875H12.5V2.5H2.5V11.0275L3.53125 10H7.8125V10.625H3.79813L1.875 12.5481ZM2.5 10V10.8656V2.5V10Z" fill="#FFB700"/>
<path d="M25.8438 12.0556L24.0856 10.2812L24.5156 9.85125L25.8438 11.1794L28.5 8.52313L28.93 8.96875L25.8438 12.0556ZM16.875 12.5481V1.875H28.125V7.1875H27.5V2.5H17.5V11.0275L18.5312 10H22.8125V10.625H18.7981L16.875 12.5481ZM17.5 10V10.8656V2.5V10Z" fill="#FFB700"/>
<path d="M40.8438 12.0556L39.0856 10.2812L39.5156 9.85125L40.8438 11.1794L43.5 8.52313L43.93 8.96875L40.8438 12.0556ZM31.875 12.5481V1.875H43.125V7.1875H42.5V2.5H32.5V11.0275L33.5312 10H37.8125V10.625H33.7981L31.875 12.5481ZM32.5 10V10.8656V2.5V10Z" fill="#FFB700"/>
<path d="M55.8438 12.0556L54.0856 10.2812L54.5156 9.85125L55.8438 11.1794L58.5 8.52313L58.93 8.96875L55.8438 12.0556ZM46.875 12.5481V1.875H58.125V7.1875H57.5V2.5H47.5V11.0275L48.5312 10H52.8125V10.625H48.7981L46.875 12.5481ZM47.5 10V10.8656V2.5V10Z" fill="#FFB700"/>
</svg>
